<?xml version="1.0" standalone="no"?>
<!DOCTYPE svg PUBLIC "-//W3C//DTD SVG 20010904//EN"
 "http://www.w3.org/TR/2001/REC-SVG-20010904/DTD/svg10.dtd">
<svg version="1.0" xmlns="http://www.w3.org/2000/svg"
 width="1043.000000pt" height="1043.000000pt" viewBox="0 0 1043.000000 1043.000000"
 preserveAspectRatio="xMidYMid meet">
<metadata>
Created by potrace 1.11, written by Peter Selinger 2001-2013
</metadata>
<g transform="translate(0.000000,1043.000000) scale(0.100000,-0.100000)"
fill="#000000" stroke="none">
<path d="M0 9509 l0 -921 63 7 c34 4 65 12 69 19 5 6 8 7 8 1 0 -6 17 -10 38
-8 21 1 44 -2 52 -7 19 -11 18 -79 -1 -91 -11 -8 -10 -13 11 -29 14 -11 32
-19 40 -19 33 3 40 -2 40 -26 0 -17 -6 -25 -17 -25 -15 -1 -14 -4 5 -20 28
-23 37 -82 13 -77 -12 1 -15 -7 -13 -38 2 -22 -1 -35 -5 -30 -11 13 -36 18
-28 5 3 -5 -1 -10 -9 -10 -9 0 -16 3 -16 8 0 4 -26 7 -57 8 -60 0 -157 30
-147 45 7 11 -31 61 -40 52 -3 -3 -6 -1884 -6 -4180 l0 -4173 5215 0 5215 0 0
5215 0 5215 -4921 0 c-2841 0 -4918 -4 -4915 -9 3 -5 -4 -20 -15 -35 -11 -14
-17 -30 -14 -36 4 -7 -7 -9 -30 -6 -29 4 -36 2 -31 -10 3 -9 1 -12 -4 -9 -6 3
-10 0 -10 -7 0 -10 -2 -10 -9 1 -7 11 -10 10 -14 -5 -5 -20 -10 43 -7 89 l2
27 -231 0 -231 0 0 -921z m540 811 c0 -5 -5 -10 -11 -10 -5 0 -7 5 -4 10 3 6
8 10 11 10 2 0 4 -4 4 -10z m-70 -41 c0 -10 -27 -19 -34 -12 -12 12 -5 22 14
20 11 -1 20 -4 20 -8z m70 -61 c27 -3 34 -28 10 -36 -12 -4 -13 -3 -3 10 11
13 8 15 -17 13 -17 -1 -27 2 -23 8 4 6 1 7 -7 2 -10 -6 -8 -12 8 -26 29 -23
28 -29 -9 -29 -17 0 -28 -4 -24 -10 3 -5 -7 -5 -25 1 -30 11 -41 41 -20 54 6
4 8 9 6 13 -4 7 48 7 104 0z m-10 -84 c0 -9 -7 -14 -17 -12 -25 5 -28 28 -4
28 12 0 21 -6 21 -16z m717 -289 c-4 -8 -2 -17 3 -20 12 -8 13 -35 1 -35 -10
0 -22 51 -14 62 8 14 15 8 10 -7z m116 -110 c-3 -8 -9 -15 -15 -15 -5 0 -6 5
-3 10 3 6 0 10 -7 10 -10 0 -9 3 2 9 18 12 31 5 23 -14z m-319 -256 c-3 -5
-16 -9 -30 -9 -14 0 -23 4 -20 9 3 5 17 9 31 9 13 0 22 -4 19 -9z m-343 -12
c-7 -7 -14 -8 -21 -1 -6 6 -2 10 12 11 16 2 18 -1 9 -10z m82 6 c-7 -2 -19 -2
-25 0 -7 3 -2 5 12 5 14 0 19 -2 13 -5z m105 2 c-8 -9 -88 -13 -88 -5 0 4 21
8 46 8 26 1 44 -1 42 -3z m85 -2 c-7 -2 -21 -2 -30 0 -10 3 -4 5 12 5 17 0 24
-2 18 -5z m7592 -104 c11 -16 1 -19 -13 -3 -7 8 -8 14 -3 14 5 0 13 -5 16 -11z
m169 0 c-8 -14 -44 -16 -55 -3 -10 12 -6 14 24 12 19 -2 33 -6 31 -9z m66 1
c0 -5 -2 -10 -4 -10 -3 0 -8 5 -11 10 -3 6 -1 10 4 10 6 0 11 -4 11 -10z
m-912 -55 c-3 -3 -9 2 -12 12 -6 14 -5 15 5 6 7 -7 10 -15 7 -18z m345 18 c-7
-2 -19 -2 -25 0 -7 3 -2 5 12 5 14 0 19 -2 13 -5z m215 -7 c-7 -8 -15 -12 -17
-11 -5 6 10 25 20 25 5 0 4 -6 -3 -14z m46 -4 c3 -5 -1 -9 -9 -9 -8 0 -15 4
-15 9 0 4 4 8 9 8 6 0 12 -4 15 -8z m362 -149 c-12 -12 -64 -10 -60 2 3 6 11
12 19 12 8 0 12 -4 9 -9 -3 -4 0 -8 6 -8 6 0 14 8 17 17 5 12 8 13 11 4 2 -7
1 -15 -2 -18z m64 7 c-6 -11 -13 -20 -16 -20 -2 0 0 9 6 20 6 11 13 20 16 20
2 0 0 -9 -6 -20z m365 -8 c0 -22 -5 -27 -27 -27 -15 -1 -30 -4 -34 -8 -10 -9
-24 2 -24 19 0 8 4 13 9 9 5 -3 12 3 15 12 4 11 17 19 34 20 24 2 28 -2 27
-25z m975 8 c-8 -5 -26 -9 -40 -9 l-25 1 25 8 c14 4 32 8 40 9 13 1 13 0 0 -9z
m-1510 -4 c0 -2 -7 -7 -16 -10 -8 -3 -12 -2 -9 4 6 10 25 14 25 6z m-110 -21
c0 -8 -4 -15 -10 -15 -5 0 -7 7 -4 15 4 8 8 15 10 15 2 0 4 -7 4 -15z m-175
-5 c-3 -5 -12 -10 -18 -10 -7 0 -6 4 3 10 19 12 23 12 15 0z m410 0 c3 -5 1
-10 -4 -10 -6 0 -11 5 -11 10 0 6 2 10 4 10 3 0 8 -4 11 -10z m-75 -36 c0 -2
-12 -4 -27 -4 -21 0 -24 3 -14 9 13 8 41 5 41 -5z m60 6 c0 -5 -4 -10 -9 -10
-6 0 -13 5 -16 10 -3 6 1 10 9 10 9 0 16 -4 16 -10z m60 -2 c0 -4 -9 -8 -20
-8 -11 0 -20 4 -20 8 0 4 9 8 20 8 11 0 20 -4 20 -8z m-1056 -6 c3 -5 -1 -9
-9 -9 -8 0 -12 4 -9 9 3 4 7 8 9 8 2 0 6 -4 9 -8z m396 0 c0 -5 -7 -17 -15
-28 -14 -18 -14 -17 -4 9 12 27 19 34 19 19z m430 -11 c0 -10 -35 -21 -69 -21
-15 0 -21 4 -15 9 16 15 84 25 84 12z m-839 -30 c-7 -5 -10 -14 -7 -20 4 -6 3
-11 -2 -11 -15 0 -22 28 -9 34 20 8 33 6 18 -3z m-6874 -111 c-1 -11 -7 -20
-14 -20 -7 0 -13 9 -13 20 0 11 6 20 14 20 9 0 14 -9 13 -20z m-351 -496 c28
-29 30 -40 8 -48 -10 -4 -14 -12 -10 -22 5 -13 2 -15 -14 -11 -11 3 -18 1 -15
-3 3 -5 -4 -12 -16 -15 -16 -5 -25 -2 -33 11 -13 24 -18 85 -6 99 16 19 60 14
86 -11z m3308 -19 c87 -23 192 -82 262 -148 127 -118 174 -233 181 -442 9
-237 -48 -376 -200 -491 -128 -96 -237 -135 -383 -136 -220 -2 -420 120 -512
312 -97 205 -101 377 -12 575 70 154 215 277 385 326 76 22 203 24 279 4z
m-2984 -5 c0 -5 -2 -10 -4 -10 -3 0 -8 5 -11 10 -3 6 -1 10 4 10 6 0 11 -4 11
-10z m-200 -11 c0 -4 -16 -7 -35 -6 -19 1 -35 5 -35 9 0 4 16 7 35 6 19 -1 35
-5 35 -9z m-35 -29 c13 -21 -10 -36 -45 -29 -19 3 -27 7 -17 8 9 0 17 7 17 14
0 8 4 7 10 -3 8 -13 10 -12 10 3 0 18 15 23 25 7z m-92 -105 c5 -7 10 -6 15 2
5 8 13 9 22 3 11 -7 11 -10 2 -10 -7 0 -23 -9 -35 -20 -18 -17 -19 -24 -9 -40
7 -12 8 -21 2 -25 -10 -6 -7 -45 4 -64 4 -5 2 -12 -3 -15 -10 -7 -25 22 -22
42 4 27 -20 10 -35 -25 -11 -28 -13 -42 -5 -55 9 -15 8 -18 -8 -18 -11 0 -27
-10 -35 -22 -9 -13 -16 -17 -16 -9 0 11 -3 11 -14 1 -11 -8 -20 -9 -33 -1 -16
9 -16 10 5 11 26 0 26 0 8 36 -9 16 -12 34 -7 43 13 24 -4 58 -31 63 -15 3
-37 -4 -58 -19 -39 -26 -70 -30 -70 -8 0 10 -16 15 -62 17 -76 4 -87 23 -21
34 26 4 51 8 56 10 4 1 21 2 37 3 19 1 30 6 30 16 0 8 6 15 14 15 8 0 16 5 18
11 5 16 39 -1 36 -19 -5 -28 21 -24 28 5 4 15 14 34 23 41 19 15 152 13 164
-3z m710 -105 c6 -17 15 -30 19 -30 4 0 8 -5 8 -11 0 -5 -5 -7 -12 -3 -8 5 -9
2 -5 -9 3 -10 2 -17 -3 -17 -6 0 -10 -7 -10 -15 0 -15 -19 -14 -67 0 -7 3 -37
-3 -66 -13 -38 -12 -53 -21 -50 -32 3 -11 0 -10 -10 3 -8 10 -17 14 -19 10 -3
-4 -3 -1 -1 7 3 8 7 27 10 42 4 20 17 32 49 47 24 12 43 24 43 29 -3 16 3 18
52 20 48 1 52 -1 62 -28z m-129 11 c3 -5 -1 -11 -9 -15 -9 -3 -15 0 -15 9 0
16 16 20 24 6z m3199 -25 c4 -10 1 -13 -8 -9 -8 3 -12 9 -9 14 7 12 11 11 17
-5z m-2986 -36 c3 -32 -13 -42 -19 -12 -5 21 2 55 10 47 3 -3 7 -18 9 -35z
m7780 -106 c-3 -3 -12 -4 -19 -1 -8 3 -5 6 6 6 11 1 17 -2 13 -5z m46 -41 c-7
-2 -19 -2 -25 0 -7 3 -2 5 12 5 14 0 19 -2 13 -5z m-106 -99 c-3 -3 -12 -4
-19 -1 -8 3 -5 6 6 6 11 1 17 -2 13 -5z m-7857 -69 c0 -5 -5 -3 -10 5 -6 10
-10 11 -10 3 0 -7 -4 -13 -10 -13 -14 0 -12 28 3 33 12 4 27 -10 27 -28z
m5880 -515 c0 -5 -4 -10 -9 -10 -6 0 -13 5 -16 10 -3 6 1 10 9 10 9 0 16 -4
16 -10z m-6808 -152 c-6 -6 -15 -8 -19 -4 -4 4 -1 11 7 16 19 12 27 3 12 -12z
m46 -138 c7 -11 9 -20 6 -20 -6 0 -44 40 -44 46 0 10 27 -9 38 -26z m2275
-270 c-3 -12 -8 -19 -11 -16 -5 6 5 36 12 36 2 0 2 -9 -1 -20z m-33 -20 c0 -5
-5 -10 -11 -10 -5 0 -7 5 -4 10 3 6 8 10 11 10 2 0 4 -4 4 -10z m4396 -25
c319 -42 739 -186 900 -309 134 -103 234 -278 253 -444 12 -107 -2 -192 -44
-279 -80 -163 -204 -233 -410 -233 -111 0 -177 16 -322 74 -253 102 -402 141
-578 152 -117 7 -228 -12 -282 -48 -102 -70 -160 -258 -110 -355 44 -85 242
-176 612 -282 333 -95 479 -146 642 -226 230 -114 349 -211 463 -379 291 -432
318 -1003 69 -1487 -126 -245 -332 -460 -569 -594 -326 -185 -759 -222 -1181
-99 -373 108 -710 316 -1030 634 -168 167 -197 210 -224 322 -19 82 -19 247 0
323 66 257 273 398 537 365 143 -18 221 -66 411 -254 244 -241 421 -331 772
-391 119 -21 185 -12 258 35 102 65 152 175 145 323 -7 147 -51 221 -183 307
-88 57 -160 84 -367 134 -363 89 -697 224 -917 370 -271 181 -463 498 -501
828 -49 427 99 840 413 1148 202 198 447 326 687 360 41 5 86 12 100 14 70 10
351 4 456 -9z m-5766 -15 c20 -6 21 -8 5 -8 -11 0 -31 4 -45 8 -20 6 -21 8 -5
8 11 0 31 -4 45 -8z m1909 7 c-2 -1 -12 -9 -22 -16 -15 -12 -17 -12 -11 3 3 9
13 16 22 16 8 0 13 -1 11 -3z m-529 -36 c0 -9 6 -23 13 -30 10 -11 9 -13 -3
-7 -8 4 -6 0 4 -8 11 -9 25 -16 30 -17 20 -1 41 -7 66 -18 23 -10 21 -11 -16
-7 -56 4 -104 27 -104 48 0 10 -4 18 -10 18 -5 0 -10 11 -10 25 0 18 4 23 15
19 8 -4 15 -14 15 -23z m-1017 -5 c-6 -30 -55 -41 -125 -28 -37 7 -50 6 -59
-4 -9 -11 -8 -14 5 -14 9 0 16 -4 16 -8 0 -4 -9 -8 -20 -8 -11 0 -20 6 -20 13
0 13 -25 17 -95 14 -35 -1 -38 0 -23 12 12 9 55 14 145 16 109 2 158 10 179
30 1 1 -1 -10 -3 -23z m154 11 c6 -4 18 -4 27 -1 24 9 20 -23 -4 -36 -18 -10
-24 -7 -21 12 0 4 -6 5 -15 1 -13 -5 -13 -7 -2 -14 10 -7 10 -9 0 -9 -7 0 -15
7 -18 15 -4 8 -11 12 -16 9 -6 -4 -6 2 1 14 11 20 25 23 48 9z m308 -26 c-3
-5 -1 -12 4 -15 5 -4 12 -2 16 4 9 15 25 2 18 -16 -9 -23 -47 -13 -51 14 -2
12 2 22 8 22 6 0 9 -4 5 -9z m-1565 -11 c12 -8 11 -10 -7 -10 -12 0 -25 5 -28
10 -8 13 15 13 35 0z m67 -6 c-3 -3 -12 -4 -19 -1 -8 3 -5 6 6 6 11 1 17 -2
13 -5z m-340 -46 c-3 -7 -5 -2 -5 12 0 14 2 19 5 13 2 -7 2 -19 0 -25z m588
22 c3 -5 2 -10 -4 -10 -5 0 -13 5 -16 10 -3 6 -2 10 4 10 5 0 13 -4 16 -10z
m685 0 c0 -5 -8 -10 -17 -10 -15 0 -16 2 -3 10 19 12 20 12 20 0z m149 4 c17
-4 31 -10 31 -14 0 -4 -16 -4 -36 0 -20 5 -42 6 -49 4 -7 -3 -16 -1 -20 5 -7
12 26 14 74 5z m286 -4 c12 -5 -36 -8 -115 -7 -85 0 -116 3 -85 7 76 9 177 9
200 0z m2021 -4 c87 -23 155 -66 246 -157 67 -66 95 -102 120 -155 l32 -69 8
-230 c12 -348 11 -1848 -1 -2295 -25 -899 -68 -1555 -122 -1840 -78 -414 -425
-734 -909 -837 -67 -14 -128 -18 -285 -17 -183 0 -208 3 -297 26 -180 49 -355
139 -497 256 -117 97 -390 387 -413 439 -70 159 -61 387 24 544 74 140 220
238 367 247 99 6 165 -9 270 -59 90 -44 129 -79 271 -242 49 -56 113 -116 150
-142 68 -46 71 -47 192 -36 56 4 119 110 157 261 46 190 46 182 47 2090 0
1917 -2 1828 47 1925 47 96 146 194 250 247 100 51 247 70 343 44z m-2671 -6
c3 -5 -1 -10 -10 -10 -9 0 -13 5 -10 10 3 6 8 10 10 10 2 0 7 -4 10 -10z m88
3 c-13 -2 -35 -2 -50 0 -16 2 -5 4 22 4 28 0 40 -2 28 -4z m-466 -193 c106 -1
195 -4 197 -9 5 -7 -441 -7 -481 1 -52 10 -33 20 27 14 36 -3 151 -6 257 -6z
m-24 -117 c6 -9 -151 -8 -160 1 -4 3 30 6 75 6 44 0 83 -3 85 -7z m-323 -14
c0 -13 -47 -22 -62 -13 -9 6 -6 10 12 14 35 9 50 8 50 -1z m43 4 c-7 -2 -19
-2 -25 0 -7 3 -2 5 12 5 14 0 19 -2 13 -5z m-138 -12 c3 -5 -10 -8 -31 -6 -48
4 -56 15 -11 15 20 0 38 -4 42 -9z m-295 -21 c8 -5 11 -10 5 -10 -5 0 -17 5
-25 10 -8 5 -10 10 -5 10 6 0 17 -5 25 -10z m170 2 c0 -12 -73 -14 -90 -2 -11
7 0 10 38 10 28 0 52 -4 52 -8z m4073 -2999 c-7 -2 -19 -2 -25 0 -7 3 -2 5 12
5 14 0 19 -2 13 -5z m-3283 -27 c0 -3 -4 -8 -10 -11 -5 -3 -10 -1 -10 4 0 6 5
11 10 11 6 0 10 -2 10 -4z m2093 -3 c-7 -2 -19 -2 -25 0 -7 3 -2 5 12 5 14 0
19 -2 13 -5z m1627 -99 c0 -8 -19 -13 -24 -6 -3 5 1 9 9 9 8 0 15 -2 15 -3z
m283 -1 c-7 -2 -21 -2 -30 0 -10 3 -4 5 12 5 17 0 24 -2 18 -5z m-4180 -70
c-13 -2 -35 -2 -50 0 -16 2 -5 4 22 4 28 0 40 -2 28 -4z m114 1 c-3 -3 -12 -4
-19 -1 -8 3 -5 6 6 6 11 1 17 -2 13 -5z m953 -4 c-36 -3 -73 -10 -82 -14 -10
-5 -18 -5 -18 -2 0 14 48 25 105 24 l60 -1 -65 -7z m-603 -7 c-20 -2 -52 -2
-70 0 -17 2 0 4 38 4 39 0 53 -2 32 -4z m493 -2 c0 -5 -9 -7 -20 -4 -11 3 -20
7 -20 9 0 2 9 4 20 4 11 0 20 -4 20 -9z m-1143 -87 c-3 -3 -12 -4 -19 -1 -8 3
-5 6 6 6 11 1 17 -2 13 -5z m8318 -41 c19 -15 18 -15 -14 -9 -18 3 -45 7 -60
7 -25 2 -19 4 49 17 3 1 14 -6 25 -15z m-567 0 c-10 -2 -28 -2 -40 0 -13 2 -5
4 17 4 22 1 32 -1 23 -4z m109 1 c-8 -8 -74 -10 -82 -3 -2 3 17 6 42 8 26 1
44 -1 40 -5z m186 -1 c-7 -2 -19 -2 -25 0 -7 3 -2 5 12 5 14 0 19 -2 13 -5z
m82 -3 c-3 -5 -12 -7 -20 -3 -21 7 -19 13 6 13 11 0 18 -4 14 -10z m75 6 c0
-2 -13 -6 -30 -8 -16 -3 -30 -1 -30 4 0 4 14 8 30 8 17 0 30 -2 30 -4z m495
-16 c-3 -5 -12 -10 -18 -10 -7 0 -6 4 3 10 19 12 23 12 15 0z m-8366 -469 c9
-16 6 -18 -19 -17 -34 1 -38 10 -12 25 22 13 20 14 31 -8z m-354 -19 c-3 -3
-11 0 -18 7 -9 10 -8 11 6 5 10 -3 15 -9 12 -12z m5 -27 c-7 -9 -15 -13 -17
-11 -7 7 7 26 19 26 6 0 6 -6 -2 -15z m-30 -11 c0 -2 -7 -4 -15 -4 -8 0 -15 4
-15 10 0 5 7 7 15 4 8 -4 15 -8 15 -10z m-450 -39 c33 -17 41 -28 13 -18 -35
14 -68 33 -55 33 7 0 26 -7 42 -15z m812 -14 c-5 -3 -12 -13 -15 -21 -3 -8 -6
0 -6 19 -1 29 1 32 14 21 9 -7 12 -16 7 -19z m-834 -46 c-3 -3 -9 2 -12 12 -6
14 -5 15 5 6 7 -7 10 -15 7 -18z m577 -25 c3 -6 -1 -7 -9 -4 -18 7 -21 14 -7
14 6 0 13 -4 16 -10z m322 -132 c-3 -8 -6 -5 -6 6 -1 11 2 17 5 13 3 -3 4 -12
1 -19z m163 2 c0 -5 -8 -10 -17 -10 -15 0 -16 2 -3 10 19 12 20 12 20 0z
m-136 -256 c9 -3 13 -10 10 -15 -8 -14 -31 -11 -38 6 -6 16 3 19 28 9z m-727
-86 c-3 -8 -6 -5 -6 6 -1 11 2 17 5 13 3 -3 4 -12 1 -19z m338 -178 c3 -5 -1
-10 -10 -10 -9 0 -13 5 -10 10 3 6 8 10 10 10 2 0 7 -4 10 -10z m745 -435 c0
-8 -4 -15 -10 -15 -5 0 -7 7 -4 15 4 8 8 15 10 15 2 0 4 -7 4 -15z m-895 -125
c3 -5 1 -10 -4 -10 -6 0 -11 5 -11 10 0 6 2 10 4 10 3 0 8 -4 11 -10z m-25
-10 c0 -5 -5 -10 -11 -10 -5 0 -7 5 -4 10 3 6 8 10 11 10 2 0 4 -4 4 -10z
m3006 -8 c15 -10 25 -42 13 -42 -6 0 -7 -5 -4 -10 4 -6 15 -8 26 -5 13 4 19 2
19 -9 0 -9 5 -16 12 -16 6 0 3 -9 -7 -20 -24 -26 -11 -39 15 -15 17 15 20 16
15 3 -4 -10 2 -22 15 -31 l22 -15 -30 -16 c-16 -8 -32 -26 -36 -38 -4 -15 -9
-19 -13 -12 -5 6 -18 14 -31 18 -12 4 -20 11 -17 16 3 5 -12 27 -34 50 -37 39
-44 60 -28 76 4 4 7 15 7 25 0 18 36 33 44 18 2 -5 3 -4 2 3 -2 7 -9 12 -15
11 -6 -2 -11 2 -11 7 0 12 20 13 36 2z m-91 -61 c3 -5 1 -12 -5 -16 -5 -3 -10
1 -10 9 0 18 6 21 15 7z m-1915 -105 c0 -2 -8 -10 -17 -17 -16 -13 -17 -12 -4
4 13 16 21 21 21 13z m2150 -36 c0 -5 -2 -10 -4 -10 -3 0 -8 5 -11 10 -3 6 -1
10 4 10 6 0 11 -4 11 -10z m-3145 -10 c3 -5 -1 -10 -10 -10 -9 0 -13 5 -10 10
3 6 8 10 10 10 2 0 7 -4 10 -10z m-163 -18 c-12 -2 -20 -8 -17 -13 9 -14 -5
-11 -21 5 -12 13 -10 15 13 18 16 2 33 1 38 -2 6 -3 0 -6 -13 -8z m68 4 c0
-11 -19 -15 -25 -6 -3 5 1 10 9 10 9 0 16 -2 16 -4z m1080 -40 c0 -12 -5 -7
-19 24 -11 24 -11 24 3 6 9 -11 16 -24 16 -30z m2307 30 c0 -8 -6 -12 -15 -9
-11 5 -11 7 0 14 7 5 13 9 14 9 0 0 1 -6 1 -14z m-3348 -8 c-1 -21 -18 -55
-18 -38 -1 9 -7 6 -18 -10 -18 -27 -35 -41 -41 -35 -2 2 5 14 17 26 11 12 18
26 15 31 -3 4 5 8 16 8 16 0 20 5 16 15 -3 8 -1 15 4 15 6 0 10 -6 9 -12z
m3055 3 c3 -4 -6 -6 -19 -3 -14 2 -25 6 -25 8 0 8 39 4 44 -5z m-3289 -11 c-4
-6 -11 -8 -16 -5 -5 4 -9 1 -9 -6 0 -7 -3 -10 -6 -6 -9 9 5 27 22 27 8 0 12
-5 9 -10z m3352 4 c-3 -3 -12 -4 -19 -1 -8 3 -5 6 6 6 11 1 17 -2 13 -5z
m-1367 -24 c-6 -11 -15 -20 -20 -20 -14 0 -12 6 6 24 21 22 27 20 14 -4z
m-1862 -8 c3 -10 -5 -13 -29 -10 -18 2 -34 9 -37 16 -3 10 5 13 29 10 18 -2
34 -9 37 -16z m3320 -16 c-7 -8 -15 -12 -17 -11 -5 6 10 25 20 25 5 0 4 -6 -3
-14z m-3278 0 c0 -2 -7 -7 -16 -10 -8 -3 -12 -2 -9 4 6 10 25 14 25 6z m390
-2 c0 -8 -19 -13 -24 -6 -3 5 1 9 9 9 8 0 15 -2 15 -3z m-244 -26 c4 -7 4 -10
-1 -6 -4 4 -14 3 -22 -3 -13 -11 -19 2 -6 14 10 11 21 8 29 -5z m2709 2 c3 -5
1 -10 -4 -10 -6 0 -11 5 -11 10 0 6 2 10 4 10 3 0 8 -4 11 -10z m-2755 -10 c0
-5 -4 -10 -10 -10 -5 0 -10 5 -10 10 0 6 5 10 10 10 6 0 10 -4 10 -10z m3158
-28 c-11 -13 -10 -15 5 -9 19 7 24 -9 5 -16 -8 -3 -6 -6 5 -6 15 -1 16 -3 5
-15 -11 -11 -17 -10 -38 8 -24 19 -25 23 -12 49 11 22 17 26 28 16 12 -9 12
-15 2 -27z m-1465 11 c-7 -2 -19 -2 -25 0 -7 3 -2 5 12 5 14 0 19 -2 13 -5z
m1247 -19 c0 -2 -7 -4 -15 -4 -8 0 -15 4 -15 10 0 5 7 7 15 4 8 -4 15 -8 15
-10z m120 6 c0 -5 -2 -10 -4 -10 -3 0 -8 5 -11 10 -3 6 -1 10 4 10 6 0 11 -4
11 -10z m-1386 -27 c5 -11 14 -13 33 -8 23 5 25 4 14 -9 -24 -28 -73 -12 -79
26 -3 22 24 14 32 -9z m1301 17 c3 -5 1 -10 -4 -10 -6 0 -11 5 -11 10 0 6 2
10 4 10 3 0 8 -4 11 -10z m-2205 -10 c0 -5 -5 -10 -11 -10 -5 0 -7 5 -4 10 3
6 8 10 11 10 2 0 4 -4 4 -10z m117 -42 c-3 -8 -6 -5 -6 6 -1 11 2 17 5 13 3
-3 4 -12 1 -19z m-895 -20 c-12 -13 -22 -17 -22 -10 0 7 5 12 11 12 5 0 8 4 5
9 -4 5 0 11 6 14 23 8 22 -3 0 -25z m1523 14 c-3 -3 -11 0 -18 7 -9 10 -8 11
6 5 10 -3 15 -9 12 -12z m30 -2 c3 -5 1 -10 -4 -10 -6 0 -11 5 -11 10 0 6 2
10 4 10 3 0 8 -4 11 -10z m1575 -4 c0 -3 -4 -8 -10 -11 -5 -3 -10 -1 -10 4 0
6 5 11 10 11 6 0 10 -2 10 -4z m35 -45 c-3 -5 6 -13 20 -18 24 -8 24 -9 6 -20
-17 -11 -22 -9 -33 15 -16 32 -12 78 4 49 5 -10 7 -21 3 -26z m-665 9 c0 -5
-4 -10 -10 -10 -5 0 -10 5 -10 10 0 6 5 10 10 10 6 0 10 -4 10 -10z m-1410 -4
c0 -2 -7 -7 -16 -10 -8 -3 -12 -2 -9 4 6 10 25 14 25 6z m205 -6 c-3 -5 -12
-10 -18 -10 -7 0 -6 4 3 10 19 12 23 12 15 0z m-1112 -25 c4 -8 2 -17 -3 -20
-6 -4 -10 3 -10 14 0 25 6 27 13 6z m762 -4 c-8 -14 -25 -14 -25 0 0 5 5 7 10
4 6 -3 10 -1 10 6 0 7 3 10 6 6 3 -3 3 -10 -1 -16z m1575 9 c0 -5 -7 -10 -16
-10 -8 0 -12 5 -9 10 3 6 10 10 16 10 5 0 9 -4 9 -10z m-1499 -14 c-8 -10 -9
-16 -1 -21 5 -3 10 -11 10 -18 0 -6 -7 -4 -17 5 -13 14 -14 20 -3 32 7 9 15
16 17 16 3 0 0 -6 -6 -14z m320 -19 c12 -22 12 -22 -10 -3 -11 11 -21 23 -21
28 0 14 19 -1 31 -25z m-1386 3 c-3 -5 -11 -10 -16 -10 -6 0 -7 5 -4 10 3 6
11 10 16 10 6 0 7 -4 4 -10z m7992 4 c-3 -3 -12 -4 -19 -1 -8 3 -5 6 6 6 11 1
17 -2 13 -5z m-4519 -32 c8 -12 10 -22 5 -22 -6 0 -15 10 -21 23 -6 12 -11 17
-11 10 -1 -14 -31 -6 -31 8 0 17 44 2 58 -19z m-1063 -2 c3 -5 1 -10 -4 -10
-6 0 -11 5 -11 10 0 6 2 10 4 10 3 0 8 -4 11 -10z m-1805 -35 c0 -5 -5 -3 -10
5 -5 8 -10 20 -10 25 0 6 5 3 10 -5 5 -8 10 -19 10 -25z m-549 -15 c6 0 7 5 3
12 -4 7 -3 8 5 4 16 -10 5 -25 -18 -23 -12 1 -17 6 -13 16 4 10 7 11 10 3 2
-7 8 -12 13 -12z m2933 2 c3 -5 -1 -9 -9 -9 -8 0 -12 4 -9 9 3 4 7 8 9 8 2 0
6 -4 9 -8z m-385 -20 c7 -14 6 -19 -4 -19 -7 0 -11 6 -8 13 2 7 -4 14 -14 17
-16 4 -16 5 -1 6 10 0 22 -7 27 -17z m1091 8 c0 -5 -4 -10 -10 -10 -5 0 -10 5
-10 10 0 6 5 10 10 10 6 0 10 -4 10 -10z m-1832 -13 c17 7 15 -16 -3 -23 -8
-3 -21 1 -30 9 -20 21 -19 30 3 19 9 -5 23 -7 30 -5z m1477 3 c3 -6 -1 -7 -9
-4 -18 7 -21 14 -7 14 6 0 13 -4 16 -10z m-1228 -22 c-3 -8 -6 -5 -6 6 -1 11
2 17 5 13 3 -3 4 -12 1 -19z m1351 -43 c17 -11 32 -23 32 -27 0 -4 7 -5 15 -2
8 4 15 2 15 -4 0 -6 -6 -13 -12 -15 -7 -3 -2 -6 12 -6 20 -1 22 -3 10 -11 -10
-6 -20 -4 -30 4 -8 8 -24 16 -35 18 -11 2 -19 11 -19 21 2 18 -12 24 -18 8 -3
-9 -28 -14 -61 -12 -10 0 -15 6 -12 12 4 6 14 8 22 5 8 -3 11 -1 8 4 -9 15 4
30 23 27 9 -1 32 -11 50 -22z m-3001 -47 c-3 -8 -6 -5 -6 6 -1 11 2 17 5 13 3
-3 4 -12 1 -19z m1473 12 c0 -5 -5 -10 -11 -10 -5 0 -7 5 -4 10 3 6 8 10 11
10 2 0 4 -4 4 -10z m-1872 -25 c-3 -3 -9 2 -12 12 -6 14 -5 15 5 6 7 -7 10
-15 7 -18z m1914 7 c-7 -2 -12 -13 -12 -25 0 -11 -3 -18 -6 -14 -11 11 6 58
18 51 9 -6 9 -9 0 -12z m1588 -2 c6 -11 8 -20 6 -20 -3 0 -10 9 -16 20 -6 11
-8 20 -6 20 3 0 10 -9 16 -20z m810 13 c0 -5 -14 -9 -30 -10 -17 -1 -30 2 -30
7 0 6 14 10 30 10 17 0 30 -3 30 -7z m100 -3 c0 -8 -66 -7 -74 1 -3 3 12 5 34
5 22 0 40 -3 40 -6z m70 3 c0 -5 -15 -9 -33 -10 -26 -1 -28 0 -12 7 26 11 45
12 45 3z m-270 -12 c0 -5 -9 -7 -20 -4 -11 3 -33 0 -49 -5 -21 -7 -33 -7 -37
-1 -3 6 -13 8 -21 5 -8 -3 -11 -1 -8 4 8 13 135 13 135 1z m694 -2 c-3 -5 -9
-7 -14 -4 -4 3 -10 0 -12 -6 -2 -7 -8 -6 -16 3 -10 13 -7 15 18 16 17 0 28 -4
24 -9z m-3487 -21 c-3 -8 -6 -5 -6 6 -1 11 2 17 5 13 3 -3 4 -12 1 -19z m2358
12 c-3 -5 -16 -10 -28 -9 -20 1 -20 2 3 9 14 4 26 8 28 9 2 1 0 -3 -3 -9z
m163 -4 c-7 -8 -15 -12 -17 -11 -5 6 10 25 20 25 5 0 4 -6 -3 -14z m-4163 -16
c-3 -5 -11 -10 -16 -10 -6 0 -7 5 -4 10 3 6 11 10 16 10 6 0 7 -4 4 -10z
m3250 -8 c-3 -3 -11 0 -18 7 -9 10 -8 11 6 5 10 -3 15 -9 12 -12z m-585 -6 c0
-2 -18 -6 -40 -8 -22 -2 -40 0 -40 4 0 5 18 8 40 8 22 0 40 -2 40 -4z m37 -2
c-3 -3 -12 -4 -19 -1 -8 3 -5 6 6 6 11 1 17 -2 13 -5z m1983 -168 c0 -2 -11
-6 -25 -8 -13 -3 -22 -1 -19 3 5 9 44 13 44 5z m-173 -12 c-3 -3 -12 -4 -19
-1 -8 3 -5 6 6 6 11 1 17 -2 13 -5z m60 0 c-3 -3 -12 -4 -19 -1 -8 3 -5 6 6 6
11 1 17 -2 13 -5z"/>
<path d="M3639 948 c-10 -41 -8 -62 8 -73 24 -18 35 1 25 40 -7 23 -30 47 -33
33z"/>
<path d="M428 733 c6 -2 18 -2 25 0 6 3 1 5 -13 5 -14 0 -19 -2 -12 -5z"/>
<path d="M0 8380 c0 -5 5 -10 11 -10 5 0 7 5 4 10 -3 6 -8 10 -11 10 -2 0 -4
-4 -4 -10z"/>
<path d="M247 8384 c-15 -16 -6 -24 28 -24 19 0 35 5 35 11 0 7 -9 9 -24 5
-14 -3 -26 -1 -28 5 -2 5 -7 7 -11 3z"/>
</g>
</svg>
